<svg id="Capa_1" data-name="Capa 1" xmlns="http://www.w3.org/2000/svg" viewBox="0 0 98.88 98.88"><defs><style>.cls-1{fill:none;stroke-miterlimit:10;stroke-width:2.88px;}.cls-1,.cls-2{stroke:#ccc;}.cls-2{fill:#ccc;}</style></defs><title>info-logo</title><circle class="cls-1" cx="49.44" cy="49.44" r="48"/><path class="cls-2" d="M56.91,64.91H40.74V63.3a20,20,0,0,1,.94-6.7,14.85,14.85,0,0,1,2.79-4.7,85.67,85.67,0,0,1,8.32-7.49q3.45-2.81,3.45-5.15a4.75,4.75,0,0,0-1.38-3.64,5.94,5.94,0,0,0-4.19-1.3,6.74,6.74,0,0,0-5,2q-2,2-2.53,7l-16.51-2q0.85-9.11,6.62-14.66T50.91,21q9.28,0,15,3.87,7.74,5.23,7.75,14a13.47,13.47,0,0,1-2,7q-2,3.36-8.17,8.21-4.3,3.4-5.43,5.47A11.19,11.19,0,0,0,56.91,64.91Zm-16.73,4.3H57.5V84.49H40.18V69.21Z" transform="translate(-0.56 -0.56)"/></svg>