<svg id="Capa_1" data-name="Capa 1" xmlns="http://www.w3.org/2000/svg" viewBox="0 0 250.42 147"><defs><style>.cls-1{fill:none;stroke:#fff;stroke-miterlimit:10;stroke-width:4px;opacity:0.25;}.cls-2{fill:#ccebff;}.cls-3{fill:#fff;}</style></defs><title>Logo</title><circle class="cls-1" cx="125.44" cy="73.5" r="71.5"/><path class="cls-2" d="M123.61,104.74h-0.54l-1.34,9.84a0.69,0.69,0,0,1-.84.64,0.93,0.93,0,0,1-1-.64l-1.8-5.68-1.82,5.68a1,1,0,0,1-1,.64,0.67,0.67,0,0,1-.82-0.64l-1.3-9.84h-0.48a0.54,0.54,0,0,1-.62-0.66,0.54,0.54,0,0,1,.62-0.68H116a0.54,0.54,0,0,1,.62.68,0.54,0.54,0,0,1-.62.66h-1.42l1,7.82,1.84-5.74a0.66,0.66,0,0,1,.7-0.46,0.65,0.65,0,0,1,.72.38l1.82,5.82,1-7.82h-1.2a0.54,0.54,0,0,1-.62-0.66,0.54,0.54,0,0,1,.62-0.68h3.16c0.47,0,.6.19,0.6,0.68S124.07,104.74,123.61,104.74Z" transform="translate(-34.56 -6.5)"/><path class="cls-2" d="M128.19,106.11a5.14,5.14,0,0,1,1.92-.35,4.58,4.58,0,0,1,4.45,2.83,4.79,4.79,0,0,1,.37,1.89,4.7,4.7,0,0,1-1.38,3.41,4.81,4.81,0,0,1-3.44,1.33,4.59,4.59,0,0,1-4.46-2.83,4.94,4.94,0,0,1-.36-1.91A4.47,4.47,0,0,1,128.19,106.11Zm0.58,7.41a3.57,3.57,0,0,0,1.34.24,3.06,3.06,0,0,0,3-2,3.52,3.52,0,0,0,.24-1.32,3.1,3.1,0,0,0-2-3,3.46,3.46,0,0,0-1.33-.25,3.11,3.11,0,0,0-3,2,3.46,3.46,0,0,0-.24,1.31A3.1,3.1,0,0,0,128.77,113.52Z" transform="translate(-34.56 -6.5)"/><path class="cls-2" d="M138.15,113.68h1.52V107.3h-1.24a0.53,0.53,0,0,1-.62-0.66,0.54,0.54,0,0,1,.62-0.66h2a0.53,0.53,0,0,1,.62.66v2A5.48,5.48,0,0,1,144,106a3.3,3.3,0,0,1,1.12-.2,2.8,2.8,0,0,1,1.44.4,0.72,0.72,0,0,1,.3,1c-0.13.34-.38,0.77-0.84,0.48a2.15,2.15,0,0,0-1-.26,3.46,3.46,0,0,0-2.55,1.31,4.48,4.48,0,0,0-1.25,3.09v1.9h3.3a0.66,0.66,0,0,1,0,1.32h-6.28a0.54,0.54,0,0,1-.62-0.66A0.53,0.53,0,0,1,138.15,113.68Z" transform="translate(-34.56 -6.5)"/><path class="cls-2" d="M149.33,102.18h2.14a0.54,0.54,0,0,1,.62.68v7.72l3.72-3.28h-0.7a0.66,0.66,0,0,1,0-1.32h3.26a0.66,0.66,0,0,1,0,1.32h-0.58l-2.86,2.54,3.28,3.84h0.56a0.66,0.66,0,0,1,0,1.32h-3.26a0.54,0.54,0,0,1-.62-0.66,0.53,0.53,0,0,1,.62-0.66h0.8l-2.44-2.92-1.78,1.56v1.36h0.6a0.66,0.66,0,0,1,0,1.32h-3.16a0.66,0.66,0,0,1,0-1.32h1.08V103.52h-1.28c-0.46,0-.6-0.19-0.6-0.66S148.87,102.18,149.33,102.18Z" transform="translate(-34.56 -6.5)"/><path class="cls-2" d="M163.27,114v0.54c0,0.49-.22.64-0.74,0.64s-0.74-.15-0.74-0.64v-2.34a0.59,0.59,0,0,1,.74-0.64,0.5,0.5,0,0,1,.52.4c0.49,1.28,1.58,1.8,3.36,1.8,1.26,0,2.36-.41,2.36-1.5a1,1,0,0,0-.84-0.9,27.56,27.56,0,0,0-3.44-.53c-1.4-.25-2.64-0.77-2.64-2.41a2.54,2.54,0,0,1,2.09-2.52,5,5,0,0,1,1.37-.18,4.49,4.49,0,0,1,3.08,1.08V106.4c0-.49.22-0.64,0.74-0.64s0.72,0.15.72,0.64v1.86c0,0.48-.22.62-0.72,0.62a0.51,0.51,0,0,1-.48-0.24c-0.56-1.06-1.62-1.46-3.24-1.46-1,0-2,.32-2,1.28a0.9,0.9,0,0,0,.8.82c1.3,0.43,3.22.3,4.46,0.78a2.24,2.24,0,0,1,1.66,2.24,2.73,2.73,0,0,1-2.18,2.71,5.63,5.63,0,0,1-1.62.21A4.33,4.33,0,0,1,163.27,114Z" transform="translate(-34.56 -6.5)"/><path class="cls-2" d="M173.49,113.68h0.8V103.52h-0.9c-0.46,0-.6-0.19-0.6-0.66s0.14-.68.6-0.68h1.76a0.54,0.54,0,0,1,.62.68v4.86a3.88,3.88,0,0,1,3.26-2c1.89,0,2.9,1.29,2.9,3.18v4.74h0.8a0.66,0.66,0,0,1,0,1.32h-3.16a0.54,0.54,0,0,1-.62-0.66,0.53,0.53,0,0,1,.62-0.66h0.9V109.1c0-1.1-.48-1.9-1.58-1.9a2.92,2.92,0,0,0-2.19,1,3.94,3.94,0,0,0-.93,2.63v2.8h0.88a0.66,0.66,0,0,1,0,1.32h-3.16A0.66,0.66,0,0,1,173.49,113.68Z" transform="translate(-34.56 -6.5)"/><path class="cls-2" d="M188.09,106.11a5.15,5.15,0,0,1,1.92-.35,4.58,4.58,0,0,1,4.45,2.83,4.77,4.77,0,0,1,.37,1.89,4.7,4.7,0,0,1-1.38,3.41,4.81,4.81,0,0,1-3.44,1.33,4.59,4.59,0,0,1-4.46-2.83,4.94,4.94,0,0,1-.36-1.91A4.47,4.47,0,0,1,188.09,106.11Zm0.58,7.41a3.58,3.58,0,0,0,1.34.24,3.06,3.06,0,0,0,3-2,3.52,3.52,0,0,0,.24-1.32,3.1,3.1,0,0,0-2-3,3.47,3.47,0,0,0-1.33-.25,3.1,3.1,0,0,0-3,2,3.45,3.45,0,0,0-.24,1.31A3.1,3.1,0,0,0,188.67,113.52Z" transform="translate(-34.56 -6.5)"/><path class="cls-2" d="M196.87,117.5H198V107.3h-0.8a0.66,0.66,0,0,1,0-1.32h1.54a0.53,0.53,0,0,1,.62.66v0.78a3.86,3.86,0,0,1,3.2-1.66,4,4,0,0,1,3.89,2.59,5.09,5.09,0,0,1,.33,1.89,4.18,4.18,0,0,1-2.55,4.18,4.56,4.56,0,0,1-1.67.3,3.72,3.72,0,0,1-3.1-1.52v4.3h2.16a0.54,0.54,0,0,1,.62.68,0.53,0.53,0,0,1-.62.66h-4.72a0.54,0.54,0,0,1-.62-0.66A0.54,0.54,0,0,1,196.87,117.5Zm8.32-7.26a2.82,2.82,0,0,0-1.58-2.81,2.89,2.89,0,0,0-1.18-.23,3,3,0,0,0,0,6.08C204.25,113.28,205.19,112.05,205.19,110.24Z" transform="translate(-34.56 -6.5)"/><path class="cls-3" d="M41.07,85.74V53.79H34.56V50.11H52.31v3.67H46V85.74h-5Z" transform="translate(-34.56 -6.5)"/><path class="cls-3" d="M54.22,92.1V88.53q3.14,0,4-.6t0.46-2.47L57.87,82q-0.75-3.22-2.55-10.83T52.76,60.3h4.77l3.42,19,3.31-19H69l-6.1,26.83A5.53,5.53,0,0,1,60.36,91,11.26,11.26,0,0,1,54.8,92.1H54.22Z" transform="translate(-34.56 -6.5)"/><path class="cls-3" d="M71.86,94.12V60.3h4.71v2A6.14,6.14,0,0,1,81.4,60a5.14,5.14,0,0,1,2.27.48,4.12,4.12,0,0,1,1.6,1.33,10.16,10.16,0,0,1,1,1.8,8.59,8.59,0,0,1,.6,2.13q0.18,1.17.25,2t0.06,1.78v6.14q0,10.44-6.32,10.44a5.85,5.85,0,0,1-4.32-2.26V94.12H71.86Zm8.08-11.73a2.29,2.29,0,0,0,1-.21,1.7,1.7,0,0,0,.71-0.71,5.72,5.72,0,0,0,.45-1,6.23,6.23,0,0,0,.25-1.39q0.07-.87.1-1.58t0-1.8V69.52q0-1.07-.05-1.85a12.51,12.51,0,0,0-.21-1.58,4.37,4.37,0,0,0-.45-1.31,2.21,2.21,0,0,0-2-1.13A5,5,0,0,0,76.57,65V81.27A5.64,5.64,0,0,0,79.94,82.38Z" transform="translate(-34.56 -6.5)"/><path class="cls-3" d="M98.54,86.1a9.48,9.48,0,0,1-3.72-.63,4.9,4.9,0,0,1-2.31-2,9.06,9.06,0,0,1-1.16-3.14A24.74,24.74,0,0,1,91,75.94V70.12a23.73,23.73,0,0,1,.35-4.46,9,9,0,0,1,1.19-3.14,5,5,0,0,1,2.31-1.94A9.37,9.37,0,0,1,98.52,60a10.16,10.16,0,0,1,2.41.26,6.67,6.67,0,0,1,1.82.71,4.19,4.19,0,0,1,1.3,1.21,7.62,7.62,0,0,1,.87,1.61,10,10,0,0,1,.53,2.06,23.29,23.29,0,0,1,.26,2.42q0.06,1.2.06,2.81l0,2.06h-10v3.67q0,1.07,0,1.59t0.09,1.34a4.4,4.4,0,0,0,.25,1.24,5.22,5.22,0,0,0,.47.86,1.6,1.6,0,0,0,.78.63,3.29,3.29,0,0,0,1.17.18,2.12,2.12,0,0,0,2.07-1,7,7,0,0,0,.55-3.15V76.88h4.6v1Q105.72,86.1,98.54,86.1ZM95.73,70.55h5.39v-2.3q0-1-.05-1.7a8.12,8.12,0,0,0-.21-1.33,2.76,2.76,0,0,0-.44-1,1.92,1.92,0,0,0-.76-0.58,2.88,2.88,0,0,0-1.17-.21,2.17,2.17,0,0,0-2.21,1.2,12.82,12.82,0,0,0-.54,4.55v1.38Z" transform="translate(-34.56 -6.5)"/><path class="cls-3" d="M111.52,85.74V63.8h-3.07V60.3h3.07V59q0-1.55.11-2.62a9.29,9.29,0,0,1,.45-2.08,4.2,4.2,0,0,1,.93-1.61,4.11,4.11,0,0,1,1.59-1,7.26,7.26,0,0,1,2.42-.35,25.83,25.83,0,0,1,3.05.24v3.52l-1.74-.21a1.74,1.74,0,0,0-1.71.81,5.55,5.55,0,0,0-.42,2.46V60.3h3.89v3.5H116.2V85.74h-4.68Z" transform="translate(-34.56 -6.5)"/><path class="cls-3" d="M129.59,86.1a8.68,8.68,0,0,1-3.53-.64,5.22,5.22,0,0,1-2.29-1.91,8.77,8.77,0,0,1-1.21-2.93,17.84,17.84,0,0,1-.38-3.9V69.34a17.85,17.85,0,0,1,.38-3.9,8.78,8.78,0,0,1,1.21-2.93,5.22,5.22,0,0,1,2.29-1.91,8.68,8.68,0,0,1,3.53-.64q4,0,5.71,2.41t1.7,7v7.37q0,4.58-1.7,7T129.59,86.1Zm0-3.48a3,3,0,0,0,1.13-.19,1.56,1.56,0,0,0,.76-0.64,5.93,5.93,0,0,0,.45-0.87,4.42,4.42,0,0,0,.25-1.2q0.07-.78.09-1.27t0-1.43V69q0-.82,0-1.22c0-.27,0-0.64-0.05-1.12a6.1,6.1,0,0,0-.14-1.08,7.72,7.72,0,0,0-.29-0.87A1.74,1.74,0,0,0,131.3,64a3,3,0,0,0-.72-0.42,2.51,2.51,0,0,0-1-.18,2.59,2.59,0,0,0-1,.18,2.74,2.74,0,0,0-.72.42,1.88,1.88,0,0,0-.48.73,6.77,6.77,0,0,0-.3.87,6.1,6.1,0,0,0-.14,1.08c0,0.47,0,.85-0.05,1.12s0,0.68,0,1.22v8q0,0.82,0,1.22c0,0.27,0,.64.05,1.12a6.09,6.09,0,0,0,.14,1.08,6.26,6.26,0,0,0,.3.86,2,2,0,0,0,.48.73,2.37,2.37,0,0,0,.72.42A2.74,2.74,0,0,0,129.59,82.62Z" transform="translate(-34.56 -6.5)"/><path class="cls-3" d="M148.24,86.1a8.68,8.68,0,0,1-3.53-.64,5.22,5.22,0,0,1-2.29-1.91,8.77,8.77,0,0,1-1.21-2.93,17.84,17.84,0,0,1-.38-3.9V69.34a17.85,17.85,0,0,1,.38-3.9,8.78,8.78,0,0,1,1.21-2.93,5.22,5.22,0,0,1,2.29-1.91,8.68,8.68,0,0,1,3.53-.64q4,0,5.71,2.41t1.7,7v7.37q0,4.58-1.7,7T148.24,86.1Zm0-3.48a3,3,0,0,0,1.13-.19,1.56,1.56,0,0,0,.76-0.64,6.13,6.13,0,0,0,.45-0.87,4.46,4.46,0,0,0,.25-1.2q0.07-.78.09-1.27t0-1.43V69q0-.82,0-1.22t-0.05-1.12a6.19,6.19,0,0,0-.14-1.08,7.72,7.72,0,0,0-.29-0.87,1.74,1.74,0,0,0-.48-0.73,3,3,0,0,0-.72-0.42,2.51,2.51,0,0,0-1-.18,2.59,2.59,0,0,0-1,.18,2.74,2.74,0,0,0-.72.42,1.88,1.88,0,0,0-.48.73,6.77,6.77,0,0,0-.3.87,6.1,6.1,0,0,0-.14,1.08c0,0.47,0,.85-0.05,1.12s0,0.68,0,1.22v8q0,0.82,0,1.22c0,0.27,0,.64.05,1.12a6.09,6.09,0,0,0,.14,1.08,6.26,6.26,0,0,0,.3.86,2,2,0,0,0,.48.73,2.37,2.37,0,0,0,.72.42A2.74,2.74,0,0,0,148.24,82.62Z" transform="translate(-34.56 -6.5)"/><path class="cls-3" d="M165.85,86.1A5.29,5.29,0,0,1,161,83.72q-1.54-2.41-1.54-8V70.8q0-1.89.14-3.37a15.9,15.9,0,0,1,.56-2.93,8.15,8.15,0,0,1,1.08-2.41,4.92,4.92,0,0,1,1.79-1.55,5.6,5.6,0,0,1,2.63-.59,5.84,5.84,0,0,1,4.23,2V50.11h4.71V85.74h-4.71V84.1A5.47,5.47,0,0,1,165.85,86.1ZM167,82.38a5.44,5.44,0,0,0,2.88-.95V64.77a5.11,5.11,0,0,0-3-1.12q-2.77,0-2.77,5.31v7.2q0,1.2.05,2a12.31,12.31,0,0,0,.23,1.69,4.32,4.32,0,0,0,.47,1.35,2.36,2.36,0,0,0,.84.83A2.41,2.41,0,0,0,167,82.38Z" transform="translate(-34.56 -6.5)"/><path class="cls-3" d="M187.3,93.62q-1.38,0-2.41,0t-2.19-.18a10.05,10.05,0,0,1-2-.41,7,7,0,0,1-1.49-.7,2.81,2.81,0,0,1-1-1.09,3.26,3.26,0,0,1-.34-1.54,5.66,5.66,0,0,1,1-3.42,7.74,7.74,0,0,1,2.63-2.3,3.79,3.79,0,0,1-1.84-1.11,2.47,2.47,0,0,1-.63-1.64,4,4,0,0,1,.67-2.3,12.69,12.69,0,0,1,2.17-2.3,7,7,0,0,1-2.22-2.91A12.58,12.58,0,0,1,179,69q0-4.45,1.8-6.75a6.36,6.36,0,0,1,5.33-2.3q3.89,0,5.24,2.79a8.23,8.23,0,0,1,1.31-1.28,9.22,9.22,0,0,1,2.13-1.34l0.73-.32,1.16,3.05a21.14,21.14,0,0,0-2.42.76,8.64,8.64,0,0,0-1.9.85,10.43,10.43,0,0,1,.56,2.18,15.34,15.34,0,0,1,.24,2.5,16.21,16.21,0,0,1-.35,3.58,8.31,8.31,0,0,1-1.15,2.76,5.07,5.07,0,0,1-2.19,1.84,8.07,8.07,0,0,1-3.35.63,10.62,10.62,0,0,1-1.31-.14q-0.95-.14-1.1-0.18l-0.19.32c-0.12.19-.19,0.32-0.24,0.41l-0.18.38a2.53,2.53,0,0,0-.17.45,1.55,1.55,0,0,0-.05.4,0.81,0.81,0,0,0,.5.75,4.8,4.8,0,0,0,1.62.37l2,0.19,1.94,0.17q5.89,0.56,5.89,6.19,0,3.42-1.82,4.89T187.3,93.62Zm-0.06-3.72a5.92,5.92,0,0,0,3-.6,2.08,2.08,0,0,0,1-1.91,2.19,2.19,0,0,0-.74-1.8,5.38,5.38,0,0,0-2.74-.79l-4-.32a7.06,7.06,0,0,0-1.25,1.41,3.26,3.26,0,0,0-.62,1.9,1.8,1.8,0,0,0,.37,1.2,2.85,2.85,0,0,0,1.56.68A18.11,18.11,0,0,0,187.23,89.9Zm-1.14-15.28a2.41,2.41,0,0,0,2.46-1.32,11.38,11.38,0,0,0,.59-4.31q0-1.18-.05-2a9.75,9.75,0,0,0-.24-1.57,3.49,3.49,0,0,0-.5-1.22,2.37,2.37,0,0,0-.87-0.73,2.88,2.88,0,0,0-1.32-.28,2.46,2.46,0,0,0-2.48,1.38A11.23,11.23,0,0,0,183,69q0,1.05.06,1.83a9.17,9.17,0,0,0,.26,1.53,3.72,3.72,0,0,0,.53,1.22,2.46,2.46,0,0,0,.88.76A2.79,2.79,0,0,0,186.09,74.63Z" transform="translate(-34.56 -6.5)"/><path class="cls-3" d="M198.64,85.74V60.3h4.71v3.63a9.07,9.07,0,0,1,2.7-3.07A5.38,5.38,0,0,1,209,60a6.35,6.35,0,0,1,.77,0v5.2a7.28,7.28,0,0,0-2.58-.49,4,4,0,0,0-2.07.53,5.58,5.58,0,0,0-1.75,1.9V85.74h-4.71Z" transform="translate(-34.56 -6.5)"/><path class="cls-3" d="M217.2,86.1a4.53,4.53,0,0,1-3.64-1.79,6.3,6.3,0,0,1-1.47-4.11,8.71,8.71,0,0,1,.59-3.28,10.78,10.78,0,0,1,1.26-2.37,7.86,7.86,0,0,1,2.31-1.88,28.29,28.29,0,0,1,2.55-1.39q0.9-.41,3.16-1.33l0.19-.09V68a8.74,8.74,0,0,0-.5-3.51,2.05,2.05,0,0,0-2.05-1q-2.66,0-2.66,3.61v1.27l-4.66-.17c0-.26,0-0.57,0-0.95q0.21-3.8,2.13-5.54A7.86,7.86,0,0,1,219.91,60q3.67,0,5.31,2t1.63,6V79.63a46.15,46.15,0,0,0,.43,6.1H223a37.07,37.07,0,0,1-.62-3.76,6.6,6.6,0,0,1-1.84,2.92A4.7,4.7,0,0,1,217.2,86.1ZM219.07,82a2.79,2.79,0,0,0,1.77-.71,5.93,5.93,0,0,0,1.3-1.4v-7.2a25.43,25.43,0,0,0-3.27,2.06,5,5,0,0,0-2.06,4,4.27,4.27,0,0,0,.58,2.41A1.9,1.9,0,0,0,219.07,82Z" transform="translate(-34.56 -6.5)"/><path class="cls-3" d="M231.38,94.12V60.3h4.71v2A6.14,6.14,0,0,1,240.92,60a5.14,5.14,0,0,1,2.27.48,4.12,4.12,0,0,1,1.6,1.33,10.22,10.22,0,0,1,1,1.8,8.59,8.59,0,0,1,.6,2.13q0.18,1.17.25,2t0.06,1.78v6.14q0,10.44-6.32,10.44a5.85,5.85,0,0,1-4.32-2.26V94.12h-4.71Zm8.08-11.73a2.3,2.3,0,0,0,1-.21,1.7,1.7,0,0,0,.71-0.71,5.86,5.86,0,0,0,.45-1,6.28,6.28,0,0,0,.25-1.39q0.07-.87.1-1.58t0-1.8V69.52q0-1.07-.05-1.85a12.51,12.51,0,0,0-.21-1.58,4.37,4.37,0,0,0-.45-1.31A2.29,2.29,0,0,0,240.5,64a2.27,2.27,0,0,0-1.21-.31,5,5,0,0,0-3.2,1.31V81.27A5.64,5.64,0,0,0,239.46,82.38Z" transform="translate(-34.56 -6.5)"/><path class="cls-3" d="M251.13,85.74V50.11h4.71V62.94a9.31,9.31,0,0,1,6.38-3,3.61,3.61,0,0,1,1.85.45,3,3,0,0,1,1.18,1.24,6.21,6.21,0,0,1,.58,1.64,9.57,9.57,0,0,1,.17,1.87V85.74h-4.71V66.53a4.38,4.38,0,0,0-.42-2.17,1.68,1.68,0,0,0-1.58-.71,5.82,5.82,0,0,0-3.46,1.68V85.74h-4.71Z" transform="translate(-34.56 -6.5)"/><path class="cls-3" d="M270.18,92.1V88.53q3.14,0,4-.6t0.46-2.47L273.83,82q-0.75-3.22-2.55-10.83T268.72,60.3h4.77l3.42,19,3.31-19H285l-6.1,26.83A5.53,5.53,0,0,1,276.32,91a11.26,11.26,0,0,1-5.55,1.13h-0.58Z" transform="translate(-34.56 -6.5)"/><path class="cls-2" d="M145,40h2.3V31.07h-2.6v3c0,0.49-.22.62-0.74,0.62s-0.72-.13-0.72-0.62V30.41c0-.48.14-0.68,0.6-0.68h8.38a0.54,0.54,0,0,1,.62.68v3.68c0,0.49-.22.62-0.74,0.62s-0.72-.13-0.72-0.62v-3h-2.62V40h2.32c0.47,0,.6.17,0.6,0.66s-0.14.66-.6,0.66H145a0.54,0.54,0,0,1-.62-0.66A0.53,0.53,0,0,1,145,40Z" transform="translate(-34.56 -6.5)"/><path class="cls-2" d="M155.47,40h0.8V29.85h-0.9c-0.46,0-.6-0.19-0.6-0.66s0.14-.68.6-0.68h1.76a0.54,0.54,0,0,1,.62.68v4.86a3.89,3.89,0,0,1,3.26-2c1.89,0,2.9,1.29,2.9,3.18V40h0.8a0.66,0.66,0,0,1,0,1.32h-3.16a0.54,0.54,0,0,1-.62-0.66,0.53,0.53,0,0,1,.62-0.66h0.9V35.43c0-1.1-.48-1.9-1.58-1.9a2.93,2.93,0,0,0-2.19,1.05,3.94,3.94,0,0,0-.93,2.63V40h0.88a0.66,0.66,0,0,1,0,1.32h-3.16A0.66,0.66,0,0,1,155.47,40Z" transform="translate(-34.56 -6.5)"/><path class="cls-2" d="M176,37.17H169c0.1,1.87,1,3,2.92,3a7.57,7.57,0,0,0,3.52-.84,0.57,0.57,0,0,1,.86.42c0.38,0.87-.56,1.1-1.18,1.32a9.87,9.87,0,0,1-3.2.52,4,4,0,0,1-4.16-2.75,6.09,6.09,0,0,1-.3-2,4.43,4.43,0,0,1,2.78-4.38,5.07,5.07,0,0,1,1.88-.34c2.88,0,4.42,1.78,4.58,4.48A0.51,0.51,0,0,1,176,37.17Zm-4-3.66a2.86,2.86,0,0,0-3,2.3h6A2.66,2.66,0,0,0,172.07,33.51Z" transform="translate(-34.56 -6.5)"/></svg>